<svg width="40" height="12" viewBox="0 0 40 12" fill="none" xmlns="http://www.w3.org/2000/svg">
<path fill-rule="evenodd" clip-rule="evenodd" d="M6 8.5C7.38071 8.5 8.5 7.38071 8.5 6C8.5 4.61929 7.38071 3.5 6 3.5C4.61929 3.5 3.5 4.61929 3.5 6C3.5 7.38071 4.61929 8.5 6 8.5ZM6 10C8.20914 10 10 8.20914 10 6C10 3.79086 8.20914 2 6 2C3.79086 2 2 3.79086 2 6C2 8.20914 3.79086 10 6 10Z" fill="#349DFF"/>
<path fill-rule="evenodd" clip-rule="evenodd" d="M20 8.5C21.3807 8.5 22.5 7.38071 22.5 6C22.5 4.61929 21.3807 3.5 20 3.5C18.6193 3.5 17.5 4.61929 17.5 6C17.5 7.38071 18.6193 8.5 20 8.5ZM20 10C22.2091 10 24 8.20914 24 6C24 3.79086 22.2091 2 20 2C17.7909 2 16 3.79086 16 6C16 8.20914 17.7909 10 20 10Z" fill="#349DFF"/>
<path fill-rule="evenodd" clip-rule="evenodd" d="M34 8.5C35.3807 8.5 36.5 7.38071 36.5 6C36.5 4.61929 35.3807 3.5 34 3.5C32.6193 3.5 31.5 4.61929 31.5 6C31.5 7.38071 32.6193 8.5 34 8.5ZM34 10C36.2091 10 38 8.20914 38 6C38 3.79086 36.2091 2 34 2C31.7909 2 30 3.79086 30 6C30 8.20914 31.7909 10 34 10Z" fill="#349DFF"/>
</svg>
