<svg viewBox="0 0 40 12" fill="none" xmlns="http://www.w3.org/2000/svg">
    <path
        d="M10 6C10 8.20914 8.20914 10 6 10C3.79086 10 2 8.20914 2 6C2 3.79086 3.79086 2 6 2C8.20914 2 10 3.79086 10 6Z"
        fill="#EF4650" />
    <path
        d="M24 6C24 8.20914 22.2091 10 20 10C17.7909 10 16 8.20914 16 6C16 3.79086 17.7909 2 20 2C22.2091 2 24 3.79086 24 6Z"
        fill="#EF4650" />
    <path
        d="M38 6C38 8.20914 36.2091 10 34 10C31.7909 10 30 8.20914 30 6C30 3.79086 31.7909 2 34 2C36.2091 2 38 3.79086 38 6Z"
        fill="#EF4650" />
</svg>
